<?xml version="1.0" standalone="no"?>
<!DOCTYPE svg PUBLIC "-//W3C//DTD SVG 20010904//EN"
 "http://www.w3.org/TR/2001/REC-SVG-20010904/DTD/svg10.dtd">
<svg version="1.0" xmlns="http://www.w3.org/2000/svg"
 width="520.000000pt" height="245.000000pt" viewBox="0 0 520.000000 245.000000"
 preserveAspectRatio="xMidYMid meet">
<metadata>
Created by potrace 1.13, written by Peter Selinger 2001-2015
</metadata>
<g transform="translate(0.000000,245.000000) scale(0.100000,-0.100000)"
fill="#000000" stroke="none">
<path d="M820 1225 l0 -285 495 0 495 0 0 285 0 285 -495 0 -495 0 0 -285z
m266 146 l-109 -110 18 -27 c10 -16 56 -79 102 -141 45 -62 83 -117 83 -123 0
-6 -27 -10 -64 -10 l-64 0 -73 105 c-40 58 -77 105 -82 105 -5 0 -16 -8 -25
-17 -16 -16 -17 -13 -20 46 l-3 62 102 109 102 110 71 0 71 0 -109 -109z m704
-151 l0 -260 -266 0 -267 0 -33 35 c-32 34 -59 99 -48 117 3 4 36 8 74 8 66 0
70 -1 76 -25 10 -40 41 -55 112 -55 78 0 102 11 102 49 0 35 -17 44 -137 75
-51 13 -110 33 -130 43 -97 50 -110 163 -30 251 20 22 23 22 284 22 l263 0 0
-260z"/>
<path d="M1350 1390 c-23 -23 -24 -29 -6 -53 11 -14 144 -57 178 -57 4 0 8 18
8 40 0 62 -33 90 -105 90 -42 0 -60 -5 -75 -20z"/>
<path d="M1910 1224 l0 -255 53 3 52 3 3 85 c2 60 7 89 19 102 22 25 36 23 55
-9 9 -16 42 -63 73 -105 l56 -78 66 0 c52 0 64 3 60 14 -3 8 -49 73 -101 144
-53 71 -96 134 -96 140 0 6 43 53 95 106 52 52 95 98 95 101 0 3 -30 5 -67 5
l-66 0 -93 -97 -93 -98 -1 98 0 97 -55 0 -55 0 0 -256z"/>
<path d="M4086 1459 c-14 -11 -26 -30 -26 -42 0 -42 -12 -66 -34 -69 -17 -2
-21 -10 -21 -38 0 -31 3 -35 28 -38 l27 -3 0 -150 0 -150 48 3 47 3 3 147 3
147 27 3 c24 3 27 7 27 38 0 31 -3 35 -28 38 -23 3 -28 8 -25 25 2 16 11 23
31 25 24 3 27 7 27 43 l0 39 -54 0 c-39 0 -60 -6 -80 -21z"/>
<path d="M2743 1344 c-18 -9 -33 -22 -34 -28 0 -6 -4 -1 -9 12 -8 18 -17 22
-55 22 l-45 0 0 -190 0 -190 50 0 50 0 0 130 c0 117 2 132 20 150 24 24 49 25
76 6 17 -13 19 -30 22 -151 l4 -136 46 3 47 3 5 133 c4 117 7 135 24 148 23
17 40 18 67 4 17 -10 19 -23 19 -151 l0 -140 53 3 52 3 3 130 c3 146 -6 194
-44 224 -50 39 -112 35 -175 -11 -14 -9 -20 -8 -34 6 -38 38 -91 45 -142 20z"/>
<path d="M3279 1340 c-46 -24 -73 -79 -65 -129 8 -53 32 -68 161 -101 59 -15
72 -26 59 -47 -7 -12 -26 -19 -56 -21 -39 -3 -49 1 -66 22 -16 21 -28 26 -66
26 -53 0 -59 -14 -27 -66 30 -49 80 -67 174 -62 77 5 82 6 114 41 26 29 33 45
33 78 0 22 -5 49 -10 60 -14 25 -72 54 -139 68 -68 14 -84 26 -70 52 15 29 74
25 103 -6 18 -19 33 -25 66 -25 l43 0 -7 33 c-15 83 -154 126 -247 77z"/>
<path d="M2410 1160 l0 -191 48 3 47 3 0 185 0 185 -47 3 -48 3 0 -191z"/>
<path d="M3612 1193 c3 -169 9 -189 57 -215 39 -21 115 -16 149 9 30 22 30 22
35 2 5 -17 12 -20 49 -17 l43 3 0 185 0 185 -46 3 -47 3 -4 -130 c-4 -151 -15
-174 -77 -169 -52 4 -61 30 -61 176 l0 122 -51 0 -51 0 4 -157z"/>
<path d="M4275 1338 c-3 -8 -4 -92 -3 -188 l3 -175 50 0 50 0 0 185 0 185 -48
3 c-32 2 -49 -1 -52 -10z"/>
</g>
</svg>
