<?xml version="1.0" standalone="no"?>
<!DOCTYPE svg PUBLIC "-//W3C//DTD SVG 20010904//EN"
 "http://www.w3.org/TR/2001/REC-SVG-20010904/DTD/svg10.dtd">
<svg version="1.0" xmlns="http://www.w3.org/2000/svg"
 width="407.000000pt" height="170.000000pt" viewBox="0 0 407.000000 170.000000"
 preserveAspectRatio="xMidYMid meet">

<g transform="translate(0.000000,170.000000) scale(0.100000,-0.100000)"
fill="#000000" stroke="none">
<path d="M0 850 l0 -850 733 0 c502 1 727 4 715 11 -26 15 -25 85 2 99 25 13
60 -3 60 -27 0 -12 6 -9 25 11 13 14 28 26 34 26 12 0 41 -28 41 -41 0 -12
-17 -12 -25 1 -14 22 -35 10 -35 -20 0 -30 21 -42 35 -20 8 13 25 13 25 1 0
-5 -7 -17 -16 -25 -14 -15 1 -16 165 -16 l181 0 -20 20 c-25 25 -25 55 0 80
25 25 36 25 56 1 16 -18 17 -18 35 0 14 14 24 16 41 10 31 -11 39 -79 12 -98
-15 -11 66 -13 452 -13 323 1 464 4 452 11 -26 15 -25 85 2 99 14 8 26 8 40 0
29 -15 25 -29 -7 -27 -21 2 -29 -3 -31 -19 -3 -24 22 -51 33 -34 3 5 1 10 -4
10 -6 0 -11 5 -11 10 0 6 9 10 20 10 26 0 28 -46 3 -53 -10 -3 18 -5 61 -6 44
0 76 2 72 6 -3 4 -27 6 -51 4 l-45 -2 0 51 0 50 35 0 c19 0 35 -4 35 -10 0 -5
-11 -10 -25 -10 -14 0 -25 -4 -25 -10 0 -5 9 -10 20 -10 11 0 20 -4 20 -10 0
-5 -9 -10 -20 -10 -11 0 -20 -4 -20 -9 0 -5 24 -9 54 -8 30 1 52 5 50 9 -3 4
-12 8 -19 8 -18 0 -36 32 -27 47 11 16 35 21 55 11 27 -14 20 -29 -10 -23 -27
6 -27 6 -9 -9 11 -9 23 -16 28 -16 16 0 8 -49 -9 -53 -10 -3 186 -5 435 -6
l452 -1 0 850 0 850 -2035 0 -2035 0 0 -850z m2260 625 l0 -155 -155 0 -155 0
0 155 0 155 155 0 155 0 0 -155z m-360 -300 c0 -57 -4 -95 -10 -95 -6 0 -10
35 -10 86 0 64 -3 85 -12 82 -9 -3 -14 -32 -16 -86 -4 -109 -22 -106 -22 3 0
50 -4 85 -10 85 -6 0 -10 -35 -10 -84 0 -114 -18 -122 -22 -10 -2 59 -7 89
-15 92 -10 3 -13 -20 -13 -92 0 -123 -18 -127 -22 -4 -2 62 -7 93 -15 96 -10
3 -13 -21 -13 -97 0 -61 -4 -101 -10 -101 -6 0 -10 40 -10 101 0 76 -3 100
-12 97 -9 -3 -14 -36 -16 -106 -4 -136 -22 -133 -22 3 0 63 -4 105 -10 105 -6
0 -10 -39 -10 -97 0 -54 -5 -105 -10 -113 -7 -10 -10 25 -10 108 l0 122 150 0
150 0 0 -95z m1509 -21 c67 -77 110 -186 111 -281 0 -24 1 -43 3 -43 1 0 27 9
57 21 105 40 242 36 347 -11 40 -18 43 -21 33 -40 -6 -12 -30 -40 -53 -62 -78
-76 -193 -118 -344 -127 l-103 -6 -49 -110 c-26 -60 -56 -124 -67 -141 l-18
-32 -51 15 c-27 8 -63 22 -79 30 -27 14 -32 13 -77 -12 -106 -57 -219 -72
-416 -56 -154 13 -214 29 -279 74 l-47 33 -31 -28 c-64 -59 -220 -95 -366 -84
-110 7 -182 29 -247 73 l-52 35 -38 -30 c-21 -16 -60 -37 -88 -46 -165 -54
-501 -39 -622 29 l-45 25 -25 -20 c-37 -29 -108 -47 -211 -55 l-89 -7 -7 75
c-4 41 -4 93 0 116 l7 41 1146 0 c720 0 1179 4 1236 10 155 18 309 66 385 120
l29 21 -34 44 c-93 123 -109 305 -39 462 l24 55 29 -21 c16 -12 48 -42 70 -67z
m-1245 -71 c10 -35 57 -315 53 -319 -2 -2 -196 -38 -432 -79 -286 -51 -430
-72 -435 -65 -9 14 -62 322 -56 327 4 4 818 150 848 152 9 1 19 -7 22 -16z
m-904 -324 c0 -117 2 -139 15 -139 12 0 15 14 16 63 l2 62 7 -55 c4 -30 11
-63 15 -72 6 -15 1 -18 -34 -18 l-41 0 0 156 c0 101 3 153 10 149 6 -4 10 -63
10 -146z m1000 94 c0 -67 -15 -61 -23 10 -3 36 -1 47 9 47 10 0 14 -15 14 -57z
m0 -198 l0 -55 -155 0 -155 0 0 25 c0 14 5 25 10 25 6 0 10 -7 10 -15 0 -8 7
-15 15 -15 8 0 15 9 15 20 0 11 5 20 10 20 6 0 10 -9 10 -20 0 -11 7 -20 15
-20 9 0 15 10 15 26 0 14 4 23 10 19 6 -3 10 -15 10 -26 0 -31 18 -22 26 14
l8 32 5 -29 c8 -41 31 -46 31 -7 0 16 5 33 10 36 6 4 10 -8 10 -29 0 -25 4
-36 15 -36 10 0 15 11 15 35 0 19 5 35 10 35 6 0 10 -16 10 -35 0 -24 5 -35
15 -35 11 0 15 12 15 45 0 25 5 45 10 45 6 0 10 -25 10 -55z m-1847 -402 c-7
-2 -21 -2 -30 0 -10 3 -4 5 12 5 17 0 24 -2 18 -5z m425 -171 c3 -18 -3 -26
-27 -35 -17 -6 -31 -17 -31 -24 0 -7 -4 -13 -10 -13 -5 0 -10 23 -10 51 l0 50
38 -3 c30 -2 38 -7 40 -26z m87 -24 c1 -50 -18 -66 -30 -28 -3 11 -11 20 -16
20 -5 0 -9 -9 -9 -20 0 -11 -4 -20 -10 -20 -5 0 -10 23 -10 51 l0 50 38 -3 37
-3 0 -47z m71 27 c8 -32 20 -32 28 0 4 14 13 25 20 25 12 0 11 -8 -2 -50 -20
-62 -39 -62 -61 0 l-16 45 -3 -47 c-4 -64 -22 -62 -22 2 0 47 2 50 25 50 18 0
26 -7 31 -25z m129 -21 c19 -49 15 -65 -11 -44 -13 11 -19 11 -36 1 -11 -7
-22 -11 -24 -8 -8 8 29 97 41 97 7 0 20 -21 30 -46z m175 36 c0 -5 -11 -10
-25 -10 -14 0 -25 -4 -25 -10 0 -5 9 -10 20 -10 11 0 20 -4 20 -10 0 -5 -9
-10 -20 -10 -11 0 -20 -4 -20 -10 0 -5 11 -10 25 -10 14 0 25 -4 25 -10 0 -5
-18 -10 -40 -10 l-40 0 0 40 c0 29 -4 40 -15 40 -11 0 -15 -11 -15 -40 0 -29
-4 -40 -15 -40 -11 0 -15 11 -15 40 0 29 -4 40 -15 40 -8 0 -15 5 -15 10 0 6
35 10 85 10 50 0 85 -4 85 -10z m112 -15 c17 -38 -3 -75 -42 -75 -29 0 -30 1
-30 50 0 49 1 50 30 50 23 0 33 -6 42 -25z m228 8 c0 -15 1 -15 18 0 29 26 49
21 24 -5 l-20 -23 20 -25 c14 -17 16 -26 7 -29 -6 -2 -20 7 -30 20 l-19 24 0
-22 c0 -13 -4 -23 -10 -23 -5 0 -10 23 -10 50 0 28 5 50 10 50 6 0 10 -7 10
-17z m215 -23 c0 -19 4 -41 8 -48 15 -23 -20 -13 -36 11 l-16 22 0 -22 c-1
-21 -6 -23 -51 -23 l-50 0 0 50 0 51 73 -3 72 -3 0 -35z m284 8 l21 -33 0 33
0 32 55 0 c30 0 55 -4 55 -10 0 -5 -7 -10 -15 -10 -11 0 -15 -11 -15 -40 0
-29 -4 -40 -15 -40 -11 0 -15 11 -15 40 0 29 -4 40 -15 40 -11 0 -15 -11 -15
-40 0 -46 -18 -53 -43 -18 l-16 23 0 -22 c-1 -14 -7 -23 -16 -23 -11 0 -15 12
-15 50 0 60 18 66 49 18z m202 -18 l18 -45 0 48 c1 26 6 47 11 47 6 0 10 -22
10 -50 0 -47 -2 -50 -25 -50 -14 0 -25 5 -25 10 0 6 -9 10 -20 10 -11 0 -20
-4 -20 -10 0 -5 -7 -10 -15 -10 -19 0 -19 -1 5 55 11 26 25 45 31 43 7 -2 20
-24 30 -48z m99 23 l14 -28 4 28 c6 46 22 30 22 -23 0 -57 -16 -66 -42 -22
l-17 27 -1 -27 c0 -16 -4 -28 -10 -28 -5 0 -10 23 -10 50 0 57 18 67 40 23z
m130 17 c0 -5 -11 -10 -25 -10 -14 0 -25 -4 -25 -10 0 -5 9 -10 20 -10 11 0
20 -4 20 -10 0 -5 -9 -10 -20 -10 -11 0 -20 -4 -20 -10 0 -5 11 -10 25 -10 14
0 25 -4 25 -10 0 -5 -16 -10 -35 -10 l-35 0 0 50 0 50 35 0 c19 0 35 -4 35
-10z m77 -22 c-2 -18 0 -41 5 -50 13 -27 -16 -23 -35 5 l-16 22 0 -22 c-2 -47
-21 -21 -21 27 l0 50 36 0 c35 0 36 -1 31 -32z m73 -18 c0 -27 -4 -50 -10 -50
-5 0 -10 23 -10 50 0 28 5 50 10 50 6 0 10 -22 10 -50z m58 18 l13 -33 14 33
c21 48 45 42 46 -10 l0 -43 20 43 c10 24 24 42 30 40 7 -2 20 -25 30 -51 16
-40 16 -47 4 -47 -8 0 -15 5 -15 10 0 6 -9 10 -20 10 -11 0 -20 -4 -20 -10 0
-5 -13 -10 -30 -10 -22 0 -30 5 -30 18 -1 16 -1 16 -11 -1 -14 -23 -28 -21
-39 6 l-9 22 0 -22 c-2 -47 -21 -21 -21 27 0 59 19 67 38 18z"/>
<path d="M1976 1603 c-3 -3 -6 -64 -6 -135 0 -107 2 -128 15 -128 13 0 15 21
15 129 0 118 -6 152 -24 134z"/>
<path d="M2020 1476 c0 -115 2 -136 15 -136 13 0 15 19 13 132 -2 94 -7 133
-15 136 -10 3 -13 -28 -13 -132z"/>
<path d="M2070 1475 c0 -83 4 -135 10 -135 6 0 10 52 10 135 0 83 -4 135 -10
135 -6 0 -10 -52 -10 -135z"/>
<path d="M2117 1603 c-4 -3 -7 -64 -7 -135 0 -107 2 -128 15 -128 13 0 15 22
15 135 0 123 -4 147 -23 128z"/>
<path d="M2166 1603 c-3 -3 -6 -64 -6 -135 0 -107 2 -128 15 -128 13 0 15 21
15 129 0 118 -6 152 -24 134z"/>
<path d="M2210 1476 c0 -115 2 -136 15 -136 13 0 15 19 13 132 -2 94 -7 133
-15 136 -10 3 -13 -28 -13 -132z"/>
<path d="M1984 927 c-2 -7 0 -31 5 -52 7 -32 9 -35 10 -13 1 16 8 28 19 31 13
4 11 5 -5 6 -13 0 -23 7 -23 15 0 8 10 17 23 19 l22 4 -23 2 c-12 0 -25 -5
-28 -12z"/>
<path d="M1890 913 c21 -8 30 -24 30 -55 0 -16 4 -28 9 -28 5 0 5 16 0 38 -5
20 -9 40 -9 45 0 4 -10 7 -22 6 -16 0 -18 -2 -8 -6z"/>
<path d="M1820 894 c0 -8 4 -13 9 -10 11 7 23 -22 15 -35 -3 -5 2 -9 10 -9 9
0 16 -5 16 -12 0 -6 2 -9 5 -6 7 6 -38 88 -47 88 -5 0 -8 -7 -8 -16z"/>
<path d="M1760 874 c0 -48 -15 -60 -30 -25 -7 17 -17 31 -22 31 -5 0 2 -18 14
-40 13 -22 26 -40 30 -40 9 0 22 89 14 97 -3 4 -6 -7 -6 -23z"/>
<path d="M1663 860 c4 -14 7 -35 7 -47 0 -13 4 -23 9 -23 9 0 -5 80 -16 90 -3
3 -3 -6 0 -20z"/>
<path d="M1812 840 c0 -19 2 -27 5 -17 2 9 2 25 0 35 -3 9 -5 1 -5 -18z"/>
<path d="M1572 835 c0 -16 3 -39 8 -50 8 -19 9 -19 9 3 1 26 18 29 38 5 13
-16 13 -16 3 5 -6 12 -19 22 -30 22 -11 0 -20 9 -23 23 -3 17 -4 15 -5 -8z"/>
<path d="M1621 844 c0 -11 3 -14 6 -6 3 7 2 16 -1 19 -3 4 -6 -2 -5 -13z"/>
<path d="M2018 853 c6 -2 18 -2 25 0 6 3 1 5 -13 5 -14 0 -19 -2 -12 -5z"/>
<path d="M1477 843 c-3 -5 -1 -26 3 -48 4 -22 8 -32 9 -22 0 9 6 17 12 17 6 0
3 7 -5 16 -23 22 -20 36 7 32 14 -2 21 -9 20 -22 -1 -12 2 -15 9 -8 17 17 1
42 -26 42 -14 0 -27 -3 -29 -7z"/>
<path d="M780 75 c0 -17 2 -18 24 -9 18 7 12 24 -10 24 -8 0 -14 -7 -14 -15z"/>
<path d="M870 80 c0 -5 7 -10 15 -10 8 0 15 5 15 10 0 6 -7 10 -15 10 -8 0
-15 -4 -15 -10z"/>
<path d="M1360 60 c0 -20 5 -30 15 -30 10 0 15 10 15 30 0 20 -5 30 -15 30
-10 0 -15 -10 -15 -30z"/>
<path d="M1730 80 c0 -5 9 -10 20 -10 11 0 20 -4 20 -10 0 -5 -9 -10 -20 -10
-11 0 -20 -4 -20 -10 0 -5 11 -10 25 -10 21 0 25 5 25 30 0 25 -4 30 -25 30
-14 0 -25 -4 -25 -10z"/>
<path d="M1810 80 c0 -5 5 -10 10 -10 6 0 10 5 10 10 0 6 -4 10 -10 10 -5 0
-10 -4 -10 -10z"/>
<path d="M2600 80 c0 -5 7 -10 15 -10 8 0 15 5 15 10 0 6 -7 10 -15 10 -8 0
-15 -4 -15 -10z"/>
<path d="M1454 75 c-9 -21 3 -45 21 -45 10 0 15 10 15 30 0 32 -26 43 -36 15z"/>
<path d="M1930 60 c0 -33 14 -38 44 -15 20 15 20 15 0 30 -30 23 -44 18 -44
-15z"/>
<path d="M2020 60 c0 -25 4 -31 18 -28 11 2 17 12 17 28 0 16 -6 26 -17 28
-14 3 -18 -3 -18 -28z"/>
<path d="M1510 37 c0 -9 -8 -21 -17 -26 -14 -8 -9 -10 26 -11 37 0 42 2 30 12
-8 7 -20 20 -26 28 -11 12 -13 12 -13 -3z"/>
<path d="M1977 20 c-16 -19 -16 -20 21 -20 25 0 32 3 23 9 -7 5 -16 14 -20 20
-5 7 -13 4 -24 -9z"/>
</g>
</svg>
